<?xml version="1.0" encoding="UTF-8"?><svg id="Layer_1" xmlns="http://www.w3.org/2000/svg" viewBox="0 0 34.3 21.61"><defs><style>.cls-1{fill:#888;}</style></defs><path class="cls-1" d="M7.59,8.51c0-.63,.4-1.03,1.06-1.03h1.98v-1.92c0-.65,.39-1.06,1.03-1.06s1.03,.41,1.03,1.06v1.92h1.86c.71,0,1.14,.4,1.14,1.03s-.43,1.06-1.14,1.06h-1.86v1.91c0,.65-.4,1.07-1.03,1.07s-1.03-.42-1.03-1.07v-1.91h-1.98c-.66,0-1.06-.41-1.06-1.06Zm11.57,1.68c0-.99,.77-1.74,1.73-1.74s1.73,.76,1.73,1.74-.76,1.73-1.73,1.73-1.73-.76-1.73-1.73Zm3.49-3.52c0-.99,.76-1.74,1.72-1.74s1.73,.76,1.73,1.74-.75,1.72-1.73,1.72-1.72-.75-1.72-1.72ZM4.58,21.61c1.73,0,2.92-.65,3.96-1.87l2.08-2.43c.3-.34,.61-.51,.97-.51h11.11c.36,0,.67,.17,.97,.51l2.09,2.43c1.04,1.22,2.23,1.87,3.96,1.87,2.72,0,4.58-1.79,4.58-4.64,0-1.23-.27-2.62-.73-4.16-.72-2.42-1.98-5.7-3.17-8.22-1.02-2.12-1.57-3.16-4.14-3.74-2.25-.51-5.34-.85-9.1-.85s-6.86,.34-9.12,.85c-2.57,.58-3.12,1.62-4.14,3.74C2.71,7.12,1.45,10.4,.73,12.81c-.47,1.54-.73,2.93-.73,4.16,0,2.85,1.86,4.64,4.58,4.64Z"/></svg>