<?xml version="1.0" encoding="UTF-8"?><svg id="Layer_1" xmlns="http://www.w3.org/2000/svg" viewBox="0 0 20.09 25.37"><defs><style>.cls-1{fill:#fff;}</style></defs><path class="cls-1" d="M5.49,16.21c-.49,0-.85-.36-.85-.83s.36-.83,.85-.83H14.64c.48,0,.84,.37,.84,.83s-.37,.83-.84,.83H5.49Zm0,4.4c-.49,0-.85-.35-.85-.82s.36-.83,.85-.83H14.64c.48,0,.84,.37,.84,.83s-.37,.82-.84,.82H5.49Zm-1.68,4.75h12.48c2.51,0,3.81-1.31,3.81-3.84V11.04H11.33c-1.47,0-2.18-.71-2.18-2.18V0H3.81C1.31,0,0,1.32,0,3.85V21.53c0,2.53,1.3,3.84,3.81,3.84ZM11.54,9.32h8.42c-.06-.52-.45-1.03-1.06-1.65L12.51,1.18c-.59-.6-1.11-.98-1.64-1.06V8.66c0,.44,.22,.66,.67,.66Z"/></svg>