<?xml version="1.0" encoding="UTF-8"?><svg id="Layer_1" xmlns="http://www.w3.org/2000/svg" viewBox="0 0 27.76 27.21"><defs><style>.cls-1{fill:#fff;}</style></defs><path class="cls-1" d="M3.84,27.21H23.91c2.54,0,3.84-1.3,3.84-3.81v-6.74c0-1.18-.14-1.75-.68-2.48l-3.9-5.23c-1.36-1.84-2.3-2.74-4.44-2.74h-1.6v1.9h1.71c.82,0,1.65,.68,2.17,1.38l4,5.51c.41,.54,.26,.76-.34,.76h-7.02c-.69,0-.99,.48-.99,.99v.05c0,1.38-1.07,2.85-2.8,2.85s-2.79-1.47-2.79-2.85v-.05c0-.51-.31-.99-1-.99H3.09c-.63,0-.75-.26-.35-.76l3.99-5.51c.52-.7,1.35-1.38,2.17-1.38h1.72v-1.9h-1.6c-2.15,0-3.07,.9-4.44,2.74L.68,14.18c-.53,.73-.68,1.3-.68,2.48v6.74c0,2.5,1.31,3.81,3.84,3.81Z"/><path class="cls-1" d="M13.88,15.66c.29,0,.54-.09,.82-.36l3.94-3.79c.19-.2,.3-.41,.3-.7,0-.55-.43-.93-.96-.93-.27,0-.54,.11-.73,.32l-1.64,1.75-.73,.86,.1-1.74V1.06c0-.57-.49-1.06-1.09-1.06s-1.08,.48-1.08,1.06V11.07l.09,1.74-.73-.86-1.64-1.75c-.2-.21-.47-.32-.74-.32-.53,0-.95,.38-.95,.93,0,.28,.1,.5,.3,.7l3.94,3.79c.28,.28,.54,.36,.82,.36Z"/></svg>