<?xml version="1.0" encoding="UTF-8"?><svg id="Layer_1" xmlns="http://www.w3.org/2000/svg" viewBox="0 0 42.11 24.32"><defs><style>.cls-1{fill:#fff;}</style></defs><path class="cls-1" d="M21.91,9.97l1.26,2.18,.41-.71c.51,.2,1.27,.47,2.12,.95,2.74,1.59,3.89,4.2,6.77,5.86,.9,.53,1.84,.91,2.57,.99,.88,.09,1.64-.19,2.17-1.1l4.71-8.15c.42-.74,.11-1.45-.59-1.86-.53-.3-1.6-.57-2.8-1.26-2.75-1.58-3.89-4.2-6.77-5.86-.9-.52-1.85-.89-2.57-.98-.88-.08-1.64,.2-2.17,1.12l-5.11,8.84Zm-1.71,7.33l-1.27-2.19-4.36,7.56c-.3,.52-.11,1.2,.4,1.51,.53,.31,1.19,.13,1.49-.41l3.74-6.47Z"/><path class="cls-1" d="M27.54,22.66L15.09,1.13C14.56,.21,13.8-.07,12.92,.01c-.73,.08-1.68,.45-2.57,.98-2.87,1.67-4.03,4.28-6.78,5.86-1.2,.69-2.26,.96-2.79,1.26-.71,.41-1.01,1.12-.59,1.86l4.7,8.15c.53,.91,1.3,1.19,2.17,1.1,.73-.08,1.68-.45,2.57-.99,2.88-1.67,4.03-4.27,6.78-5.86,.84-.48,1.61-.75,2.12-.95l7.11,12.33c.31,.53,.96,.72,1.5,.41,.51-.31,.7-.98,.4-1.51Z"/></svg>