<?xml version="1.0" encoding="UTF-8"?><svg id="Layer_1" xmlns="http://www.w3.org/2000/svg" viewBox="0 0 24.56 17.51"><defs><style>.cls-1{fill:#fff;}</style></defs><path class="cls-1" d="M20.92,17.37c.38,.25,.89,.15,1.17-.27,1.55-2.31,2.47-5.19,2.47-8.35s-.95-6.02-2.47-8.34c-.28-.43-.79-.53-1.17-.27-.41,.26-.47,.77-.18,1.23,1.34,2.04,2.18,4.58,2.18,7.38s-.83,5.36-2.18,7.39c-.29,.46-.23,.97,.18,1.23Zm-11.3-.76c.65,0,1.12-.47,1.12-1.12V2.07c0-.65-.47-1.18-1.14-1.18-.45,0-.76,.18-1.25,.64l-3.67,3.45c-.05,.04-.12,.07-.2,.07H1.98c-1.28,0-1.98,.71-1.98,2.07v3.27c0,1.35,.69,2.07,1.98,2.07h2.5c.08,0,.15,.02,.2,.07l3.67,3.47c.44,.42,.81,.6,1.27,.6Zm7.77-1.62c.4,.25,.88,.16,1.15-.25,1.15-1.62,1.81-3.78,1.81-6s-.66-4.4-1.81-6c-.27-.4-.76-.5-1.15-.25-.41,.26-.47,.77-.17,1.23,.94,1.37,1.48,3.16,1.48,5.02s-.55,3.64-1.48,5.02c-.3,.46-.25,.97,.17,1.23Zm-3.52-2.35c.37,.24,.86,.16,1.12-.23,.71-.94,1.12-2.29,1.12-3.67s-.41-2.72-1.12-3.68c-.26-.38-.76-.47-1.12-.21-.42,.28-.5,.79-.17,1.28,.49,.69,.76,1.63,.76,2.61s-.28,1.91-.76,2.61c-.33,.5-.25,1,.17,1.29Z"/></svg>