<?xml version="1.0" encoding="UTF-8"?><svg id="Layer_1" xmlns="http://www.w3.org/2000/svg" viewBox="0 0 24.56 17.68"><defs><style>.cls-1{fill:#fff;}</style></defs><path class="cls-1" d="M16.41,10.91V2.08c0-.65-.48-1.18-1.15-1.18-.45,0-.76,.19-1.25,.64l-3.41,3.17s-.09,.06-.13,.06h-.21l6.15,6.13Zm3.07,6.57c.27,.27,.72,.27,.98,0,.27-.27,.27-.71,0-.98L5.09,1.13c-.27-.27-.72-.27-.99,0s-.26,.72,0,.99l15.38,15.35ZM7.6,12.48h2.48c.09,0,.15,.02,.2,.07l3.73,3.47c.45,.42,.81,.6,1.26,.6,.5,0,.89-.25,1.05-.76L6.11,5.65c-.3,.33-.45,.82-.45,1.46v3.34c0,1.36,.66,2.04,1.94,2.04Z"/></svg>